# xmcd CD database file
#
# Track frame offsets:
#	150
#	14649
#	31505
#	60503
#	79267
#	92734
#	106622
#	127936
#	164306
#	185850
#	212843
#	237595
#	276518
#	308575
#
# Disc length: 4650 seconds
#
# Revision: 0
# Processed by: cddbd v1.5.1PL2 Copyright (c) Steve Scherf et al.
# Submitted via: Feurio! 1.68 - http://www.feurio.com
#
DISCID=b912280e
DTITLE=Janis Joplin - in Concert
DYEAR=1900
DGENRE=Blues
TTITLE0=Down On Me
TTITLE1=Bye Bye Baby
TTITLE2=All Is Loneliness
TTITLE3=Piece Of My Heart
TTITLE4=Road Block
TTITLE5=Flower In The Sun
TTITLE6=Summertime
TTITLE7=Ego Rock
TTITLE8=Half Moon
TTITLE9=Kozmic Blues
TTITLE10=Move Over
TTITLE11=Try ( Just A Little Bit Harder )
TTITLE12=Get It While You Can
TTITLE13=Ball And Chain
EXTD=
EXTT0=
EXTT1=
EXTT2=
EXTT3=
EXTT4=
EXTT5=
EXTT6=
EXTT7=
EXTT8=
EXTT9=
EXTT10=
EXTT11=
EXTT12=
EXTT13=
PLAYORDER=
